<svg xmlns="http://www.w3.org/2000/svg" viewBox="0 0 1677 512" width="1677" height="512" xmlns:c2pa="http://c2pa.org/manifest"><metadata><c2pa:manifest>AAAWgmp1bWIAAAAeanVtZGMycGEAEQAQgAAAqgA4m3EDYzJwYQAAABZcanVtYgAAAEdqdW1kYzJtYQARABCAAACqADibcQN1cm46YzJwYTpkNjJmMmQ4Ny1hMjUyLTRjOTgtOWQ4NC04NTE1NmMwNzUxODIAAAADl2p1bWIAAAApanVtZGMyYXMAEQAQgAAAqgA4m3EDYzJwYS5hc3NlcnRpb25zAAAAALxqdW1iAAAARGp1bWRjYm9yABEAEIAAAKoAOJtxE2MycGEuaW5ncmVkaWVudC52MwAAAAAYYzJzaG123cPyh0PXkOW1KwGAv1gAAABwY2JvcqNpZGM6Zm9ybWF0bWltYWdlL3N2Zyt4bWxqaW5zdGFuY2VJRHgseG1wOmlpZDo4MzE2MzBkNi01YjQ5LTRkMjMtOGI4ZS1lMzg0ZThlMzc5OGFscmVsYXRpb25zaGlwaHBhcmVudE9mAAAB4mp1bWIAAABBanVtZGNib3IAEQAQgAAAqgA4m3ETYzJwYS5hY3Rpb25zLnYyAAAAABhjMnNoMZiSCsioiB5VzEgeusIwwwAAAZljYm9yomdhY3Rpb25zgqJmYWN0aW9ua2MycGEub3BlbmVkanBhcmFtZXRlcnOha2luZ3JlZGllbnRzgaJjdXJseC1zZWxmI2p1bWJmPWMycGEuYXNzZXJ0aW9ucy9jMnBhLmluZ3JlZGllbnQudjNkaGFzaFggZpVKa9apQ5X9XqQhQc8ypEbCFMBwo/szPd0JHn4S0CekZmFjdGlvbngdY29tLmFudGhyb3BpYy5jbGF1ZGUucHJvdmlkZWRqcGFyYW1ldGVyc6F4H2NvbS5hbnRocm9waWMub3JpZ2luLWNvbmZpZGVuY2VndW5rbm93bmtkZXNjcmlwdGlvbnhmQ2xhdWRlIHByb3ZpZGVkIHRoaXMgZmlsZSBhdCB0aGUgcmVxdWVzdCBvZiBhIHVzZXIgYW5kIG1heSBoYXZlIGNyZWF0ZWQgb3IgbW9kaWZpZWQgdGhlIGZpbGUgY29udGVudHMubXNvZnR3YXJlQWdlbnShZG5hbWVmQ2xhdWRlcmFsbEFjdGlvbnNJbmNsdWRlZPUAAADIanVtYgAAAEBqdW1kY2JvcgARABCAAACqADibcRNjMnBhLmhhc2guZGF0YQAAAAAYYzJzaB3fSWgaG77tTz/AtOicqEsAAACAY2JvcqVjYWxnZnNoYTI1NmNwYWRNAAAAAAAAAAAAAAAAAGRoYXNoWCAGdMgjTLE1xvWnZYGi/faohE7AY5iwOjEKZaFi8QjXNmRuYW1lbmp1bWJmIG1hbmlmZXN0amV4Y2x1c2lvbnOBomVzdGFydBiYZmxlbmd0aBkeBAAAAj5qdW1iAAAAJ2p1bWRjMmNsABEAEIAAAKoAOJtxA2MycGEuY2xhaW0udjIAAAACD2Nib3KlY2FsZ2ZzaGEyNTZpc2lnbmF0dXJleE1zZWxmI2p1bWJmPS9jMnBhL3VybjpjMnBhOmQ2MmYyZDg3LWEyNTItNGM5OC05ZDg0LTg1MTU2YzA3NTE4Mi9jMnBhLnNpZ25hdHVyZWppbnN0YW5jZUlEeCx4bXA6aWlkOjg1YmFhYmE4LThiNzEtNDM1ZS05NGVhLTg3ZTVmMDQzZDk2OHJjcmVhdGVkX2Fzc2VydGlvbnODomN1cmx4LXNlbGYjanVtYmY9YzJwYS5hc3NlcnRpb25zL2MycGEuaW5ncmVkaWVudC52M2RoYXNoWCBmlUpr1qlDlf1epCFBzzKkRsIUwHCj+zM93QkefhLQJ6JjdXJseCpzZWxmI2p1bWJmPWMycGEuYXNzZXJ0aW9ucy9jMnBhLmFjdGlvbnMudjJkaGFzaFggJzUMJ9AhKfKhtqkopzmnqR4pljpuf2LebNsR7y8n5A6iY3VybHgpc2VsZiNqdW1iZj1jMnBhLmFzc2VydGlvbnMvYzJwYS5oYXNoLmRhdGFkaGFzaFgg0VVPkSy7VxjlojRzzPNQsPuOFNJI/l6SrxUALp3Rdsl0Y2xhaW1fZ2VuZXJhdG9yX2luZm+jZG5hbWVvQW50aHJvcGljIEZpbGVzZ3ZlcnNpb25lMS4wLjBrc3BlY1ZlcnNpb25lMi40LjAAABA4anVtYgAAAChqdW1kYzJjcwARABCAAACqADibcQNjMnBhLnNpZ25hdHVyZQAAABAIY2JvctKEWQISogEmGCFZAgowggIGMIIBjaADAgECAhRA5aAK7sI50L64g/oGQgU9Z1UTADAKBggqhkjOPQQDAzBJMRcwFQYDVQQKEw5BbnRocm9waWMsIFBCQzEuMCwGA1UEAxMlQW50aHJvcGljIENvbnRlbnQgQ3JlZGVudGlhbHMgUm9vdCBDQTAeFw0yNjA4MDcxODQzNTZaFw0yODA4MDYxOTQzNTZaMEQxFzAVBgNVBAoTDkFudGhyb3BpYywgUEJDMSkwJwYDVQQDEyBBbnRocm9waWMgQ2xhdWRlIENvbnRlbnQgU2lnbmluZzBZMBMGByqGSM49AgEGCCqGSM49AwEHA0IABJh6CmvLUBgFFNU0vUKlOVtE6djd17L5SuwX0LemFisBM3dkd/3cyjxFA3Qo5S46fX0/ihY0VZ7mfb9KF703t5OjWDBWMA4GA1UdDwEB/wQEAwIHgDAVBgNVHSUEDjAMBgorBgEEAYPoXgIBMAwGA1UdEwEB/wQCMAAwHwYDVR0jBBgwFoAUzlHiBIFOZFsj+OPEz5o+nMHXXMIwCgYIKoZIzj0EAwMDZwAwZAIwMXMdFJ4BetLLVY7ORuE9noqbbAZOZn/aArXyTwFAZfKrPzxF2vPoJNf1+UCdg1XGAjBwX1zd9WGqYkqmL5SFqw1QySjr1zJfpJM9+1rdDwSPLMOPOjKuiXjoU/pUUeG9RwmhY3BhZFkNngAAAAAAAAAAAAAAAAAAAAAAAAAAAAAAAAAAAAAAAAAAAAAAAAAAAAAAAAAAAAAAAAAAAAAAAAAAAAAAAAAAAAAAAAAAAAAAAAAAAAAAAAAAAAAAAAAAAAAAAAAAAAAAAAAAAAAAAAAAAAAAAAAAAAAAAAAAAAAAAAAAAAAAAAAAAAAAAAAAAAAAAAAAAAAAAAAAAAAAAAAAAAAAAAAAAAAAAAAAAAAAAAAAAAAAAAAAAAAAAAAAAAAAAAAAAAAAAAAAAAAAAAAAAAAAAAAAAAAAAAAAAAAAAAAAAAAAAAAAAAAAAAAAAAAAAAAAAAAAAAAAAAAAAAAAAAAAAAAAAAAAAAAAAAAAAAAAAAAAAAAAAAAAAAAAAAAAAAAAAAAAAAAAAAAAAAAAAAAAAAAAAAAAAAAAAAAAAAAAAAAAAAAAAAAAAAAAAAAAAAAAAAAAAAAAAAAAAAAAAAAAAAAAAAAAAAAAAAAAAAAAAAAAAAAAAAAAAAAAAAAAAAAAAAAAAAAAAAAAAAAAAAAAAAAAAAAAAAAAAAAAAAAAAAAAAAAAAAAAAAAAAAAAAAAAAAAAAAAAAAAAAAAAAAAAAAAAAAAAAAAAAAAAAAAAAAAAAAAAAAAAAAAAAAAAAAAAAAAAAAAAAAAAAAAAAAAAAAAAAAAAAAAAAAAAAAAAAAAAAAAAAAAAAAAAAAAAAAAAAAAAAAAAAAAAAAAAAAAAAAAAAAAAAAAAAAAAAAAAAAAAAAAAAAAAAAAAAAAAAAAAAAAAAAAAAAAAAAAAAAAAAAAAAAAAAAAAAAAAAAAAAAAAAAAAAAAAAAAAAAAAAAAAAAAAAAAAAAAAAAAAAAAAAAAAAAAAAAAAAAAAAAAAAAAAAAAAAAAAAAAAAAAAAAAAAAAAAAAAAAAAAAAAAAAAAAAAAAAAAAAAAAAAAAAAAAAAAAAAAAAAAAAAAAAAAAAAAAAAAAAAAAAAAAAAAAAAAAAAAAAAAAAAAAAAAAAAAAAAAAAAAAAAAAAAAAAAAAAAAAAAAAAAAAAAAAAAAAAAAAAAAAAAAAAAAAAAAAAAAAAAAAAAAAAAAAAAAAAAAAAAAAAAAAAAAAAAAAAAAAAAAAAAAAAAAAAAAAAAAAAAAAAAAAAAAAAAAAAAAAAAAAAAAAAAAAAAAAAAAAAAAAAAAAAAAAAAAAAAAAAAAAAAAAAAAAAAAAAAAAAAAAAAAAAAAAAAAAAAAAAAAAAAAAAAAAAAAAAAAAAAAAAAAAAAAAAAAAAAAAAAAAAAAAAAAAAAAAAAAAAAAAAAAAAAAAAAAAAAAAAAAAAAAAAAAAAAAAAAAAAAAAAAAAAAAAAAAAAAAAAAAAAAAAAAAAAAAAAAAAAAAAAAAAAAAAAAAAAAAAAAAAAAAAAAAAAAAAAAAAAAAAAAAAAAAAAAAAAAAAAAAAAAAAAAAAAAAAAAAAAAAAAAAAAAAAAAAAAAAAAAAAAAAAAAAAAAAAAAAAAAAAAAAAAAAAAAAAAAAAAAAAAAAAAAAAAAAAAAAAAAAAAAAAAAAAAAAAAAAAAAAAAAAAAAAAAAAAAAAAAAAAAAAAAAAAAAAAAAAAAAAAAAAAAAAAAAAAAAAAAAAAAAAAAAAAAAAAAAAAAAAAAAAAAAAAAAAAAAAAAAAAAAAAAAAAAAAAAAAAAAAAAAAAAAAAAAAAAAAAAAAAAAAAAAAAAAAAAAAAAAAAAAAAAAAAAAAAAAAAAAAAAAAAAAAAAAAAAAAAAAAAAAAAAAAAAAAAAAAAAAAAAAAAAAAAAAAAAAAAAAAAAAAAAAAAAAAAAAAAAAAAAAAAAAAAAAAAAAAAAAAAAAAAAAAAAAAAAAAAAAAAAAAAAAAAAAAAAAAAAAAAAAAAAAAAAAAAAAAAAAAAAAAAAAAAAAAAAAAAAAAAAAAAAAAAAAAAAAAAAAAAAAAAAAAAAAAAAAAAAAAAAAAAAAAAAAAAAAAAAAAAAAAAAAAAAAAAAAAAAAAAAAAAAAAAAAAAAAAAAAAAAAAAAAAAAAAAAAAAAAAAAAAAAAAAAAAAAAAAAAAAAAAAAAAAAAAAAAAAAAAAAAAAAAAAAAAAAAAAAAAAAAAAAAAAAAAAAAAAAAAAAAAAAAAAAAAAAAAAAAAAAAAAAAAAAAAAAAAAAAAAAAAAAAAAAAAAAAAAAAAAAAAAAAAAAAAAAAAAAAAAAAAAAAAAAAAAAAAAAAAAAAAAAAAAAAAAAAAAAAAAAAAAAAAAAAAAAAAAAAAAAAAAAAAAAAAAAAAAAAAAAAAAAAAAAAAAAAAAAAAAAAAAAAAAAAAAAAAAAAAAAAAAAAAAAAAAAAAAAAAAAAAAAAAAAAAAAAAAAAAAAAAAAAAAAAAAAAAAAAAAAAAAAAAAAAAAAAAAAAAAAAAAAAAAAAAAAAAAAAAAAAAAAAAAAAAAAAAAAAAAAAAAAAAAAAAAAAAAAAAAAAAAAAAAAAAAAAAAAAAAAAAAAAAAAAAAAAAAAAAAAAAAAAAAAAAAAAAAAAAAAAAAAAAAAAAAAAAAAAAAAAAAAAAAAAAAAAAAAAAAAAAAAAAAAAAAAAAAAAAAAAAAAAAAAAAAAAAAAAAAAAAAAAAAAAAAAAAAAAAAAAAAAAAAAAAAAAAAAAAAAAAAAAAAAAAAAAAAAAAAAAAAAAAAAAAAAAAAAAAAAAAAAAAAAAAAAAAAAAAAAAAAAAAAAAAAAAAAAAAAAAAAAAAAAAAAAAAAAAAAAAAAAAAAAAAAAAAAAAAAAAAAAAAAAAAAAAAAAAAAAAAAAAAAAAAAAAAAAAAAAAAAAAAAAAAAAAAAAAAAAAAAAAAAAAAAAAAAAAAAAAAAAAAAAAAAAAAAAAAAAAAAAAAAAAAAAAAAAAAAAAAAAAAAAAAAAAAAAAAAAAAAAAAAAAAAAAAAAAAAAAAAAAAAAAAAAAAAAAAAAAAAAAAAAAAAAAAAAAAAAAAAAAAAAAAAAAAAAAAAAAAAAAAAAAAAAAAAAAAAAAAAAAAAAAAAAAAAAAAAAAAAAAAAAAAAAAAAAAAAAAAAAAAAAAAAAAAAAAAAAAAAAAAAAAAAAAAAAAAAAAAAAAAAAAAAAAAAAAAAAAAAAAAAAAAAAAAAAAAAAAAAAAAAAAAAAAAAAAAAAAAAAAAAAAAAAAAAAAAAAAAAAAAAAAAAAAAAAAAAAAAAAAAAAAAAAAAAAAAAAAAAAAAAAAAAAAAAAAAAAAAAAAAAAAAAAAAAAAAAAAAAAAAAAAAAAAAAAAAAAAAAAAAAAAAAAAAAAAAAAAAAAAAAAAAAAAAAAAAAAAAAAAAAAAAAAAAAAAAAAAAAAAAAAAAAAAAAAAAAAAAAAAAAAAAAAAAAAAAAAAAAAAAAAAAAAAAAAAAAAAAAAAAAAAAAAAAAAAAAAAAAAAAAAAAAAAAAAAAAAAAAAAAAAAAAAAAAAAAAAAAAAAAAAAAAAAAAAAAAAAAAAAAAAAAAAAAAAAAAAAAAAAAAAAAAAAAAAAAAAAAAAAAAAAAAAAAAAAAAAAAAAAAAAAAAAAAAAAAAAAAAAAAAAAAAAAAAAAAAAAAAAAAAAAAAAAAAAAAAAAAAAAAAAAAAAAAAAAAAAAAAAAAAAAAAAAAAAAAAAAAAAAAAAAAAAAAAAAAAAAAAAAAAAAAAAAAAAAAAAAAAAAAAAAAAAAAAAAAAAAAAAAAAAAAAAAAAAAAAAAAAAAAAAAAAAAAAAAAAAAAAAAAAAAAAAAAAAAAAAAAAAAAAAAAAAAAAAAAAAAAAAAAAAAAAAAAAAAAAAAAAAAAAAAAAAAAAAAAAAAAAAAAAAAAAAAAAAAAAAAAAAAAAAAAAAAAAAAAAAAAAAAAAAAAAAAAAAAAAAAAAAAAAAAAAAAAAAAAAAAAAAAAAAAAAAAAAAAAAAAAAAAAAAAAAAAAAAAAAAAAAAAAAAAAAAAAAAAAAAAAAAAAAAAAAAAAAAAAAAAAAAAAAAAAAAAAAAAAAAAAAAAAAAAAAAAAAAAAAAAAAAAAAAAAAAAAAAAAAAAAAAAAAAAAAAAAAAAAAAAAAAAAAAAAAAAAAAAAAAAAAAAAAAAAAAAAAAAAAAAAAAAAAAAAAAAAAAAAAAAAAAAAAAAAAAAAAAAAAAAAAAAAAAAAAAAAAAAAAAAAAAAAAAAAAAAAAAAAAAAAAAAAAAAAAAAAAAAAAAAAAAAAAAAAAAAAAAAAAAAAAAAAAAAAAAAAAAAAAAAAAAAAAAAAAAAAAAAAAAAAAAAAAAAAAAAAAAAAAAAAAAAAAAAAAAAAAAAAAAAAAAAAAAAAAAAAAAAAAAAAAAAAAAAAAAAAAAAAAAAAAAAAAAAAAAAAAAAAAAAAAAAAAAAAAAAAAAAAAAAAAAAAAAAAAAAAAAAAAAAAAAAAAAAAAAAAAAAAAAAAAAAAAAAAAAAAAAAAAAAAAAAAAAAAAAAAAAAAAAAAAAAAAAAAAAAAAAAAAAAAAAAAAAAAAAAAAAAAAAAAAAAAAAAAAAAAAAAAAAAAAAAAAAAAAAAAAAAAAAAAAAAAAAAAAAAAAAAAAAAAAAAAAAAAAAAAAAAAAAAAAAAAAAAAAAAAAAAAAAAAAAAAAAAAAAAAAAAAAAAAAAAAAAAAAAAAAAAAAAAAAAAAAAAAAAAAAAAAAAAAAAAAAAAAAAAAAAAAAAAAPZYQCXogzGatTZM+Fm3DwSq5WCvGdCsjDnaidgxbjOHEGi5jFQm1/xUAuKOrPoYpaovs3PXg33qzJLkG0l2c/KgqfE=</c2pa:manifest></metadata>
  <g id="emblem">
  <defs>
    <radialGradient id="bg" cx="50%" cy="38%" r="70%">
      <stop offset="0" stop-color="#1B5A48"/>
      <stop offset="1" stop-color="#0E3328"/>
    </radialGradient>
    <linearGradient id="wave" gradientUnits="userSpaceOnUse" x1="136" y1="0" x2="376" y2="0">
      <stop offset="0" stop-color="#5FC8BF"/>
      <stop offset="0.5" stop-color="#9BDC8E"/>
      <stop offset="1" stop-color="#F2AE3F"/>
    </linearGradient>
  </defs>

  <!-- Grundform -->
  <circle cx="256" cy="256" r="236" fill="url(#bg)"/>
  <circle cx="256" cy="256" r="222" fill="none" stroke="#DCEFE3" stroke-opacity="0.18" stroke-width="2"/>

  <!-- Wind (links oben) -->
  <g fill="none" stroke="#DCEFE3" stroke-width="8" stroke-linecap="round">
    <path d="M96 126 H158 A9 9 0 1 0 149 117"/>
    <path d="M90 148 H144"/>
    <path d="M104 170 H150 A8 8 0 1 1 158 178"/>
  </g>

  <!-- Wolke (Mitte oben) -->
  <g fill="#DCEFE3">
    <circle cx="224" cy="136" r="18"/>
    <circle cx="252" cy="120" r="26"/>
    <circle cx="284" cy="130" r="20"/>
    <rect x="206" y="134" width="96" height="20" rx="10"/>
  </g>

  <!-- Regen -->
  <g fill="#5FC8BF">
    <path transform="translate(216 178)" d="M0 -10 C5 -3 6 2 6 4 A6 6 0 1 1 -6 4 C-6 2 -5 -3 0 -10 Z"/>
    <path transform="translate(232 198)" d="M0 -10 C5 -3 6 2 6 4 A6 6 0 1 1 -6 4 C-6 2 -5 -3 0 -10 Z"/>
  </g>

  <!-- Blitz -->
  <polygon fill="#F2AE3F" points="266,154 254,182 270,182 256,214 284,176 268,176 280,154"/>

  <!-- Vögel (rechts oben) -->
  <g fill="none" stroke="#DCEFE3" stroke-width="8" stroke-linecap="round" stroke-linejoin="round">
    <path d="M336 152 Q356 132 376 152 Q396 132 416 152"/>
    <path d="M366 108 Q379 96 392 108 Q405 96 418 108" stroke-width="6"/>
  </g>

  <!-- Audio-Waveform (Mitte) -->
  <g stroke="url(#wave)" stroke-width="10" stroke-linecap="round">
    <line x1="136" y1="259" x2="136" y2="281"/>
    <line x1="156" y1="250" x2="156" y2="290"/>
    <line x1="176" y1="238" x2="176" y2="302"/>
    <line x1="196" y1="246" x2="196" y2="294"/>
    <line x1="216" y1="230" x2="216" y2="310"/>
    <line x1="236" y1="240" x2="236" y2="300"/>
    <line x1="256" y1="220" x2="256" y2="320"/>
    <line x1="276" y1="240" x2="276" y2="300"/>
    <line x1="296" y1="230" x2="296" y2="310"/>
    <line x1="316" y1="246" x2="316" y2="294"/>
    <line x1="336" y1="238" x2="336" y2="302"/>
    <line x1="356" y1="250" x2="356" y2="290"/>
    <line x1="376" y1="259" x2="376" y2="281"/>
  </g>

  <!-- Wasser / Wellen (unten) -->
  <g fill="none" stroke="#5FC8BF" stroke-width="8" stroke-linecap="round" transform="translate(0 10)">
    <path d="M150 348 q17 -14 35 0 t35 0 t35 0"/>
    <path d="M164 372 q17 -14 35 0 t35 0 t35 0"/>
  </g>

  <!-- Feuer (rechts unten) -->
  <path fill="#F2AE3F" transform="translate(0 10)" d="M344 320 C330 340 320 352 320 368 A24 24 0 0 0 368 368 C368 354 360 346 356 334 C354 342 350 344 348 340 C350 332 348 326 344 320 Z"/>
  <path fill="#0E3328" fill-opacity="0.65" transform="translate(0 10)" d="M344 346 C338 354 334 360 334 368 A10 10 0 0 0 354 368 C354 360 350 354 344 346 Z"/>
</g>
  <g id="wordmark" fill="#DCEFE3" transform="translate(560 292)">
    <path d="M132.24 -132.62 83.6 0.0H51.3L2.66 -132.62H31.16L67.64 -27.17L103.93 -132.62Z M188.8 -111.15V-77.9H233.45V-56.81H188.8V-21.66H239.15V0.0H162.2V-132.81H239.15V-111.15Z M345.68 0.0 316.42 -51.68H303.88V0.0H277.28000000000003V-132.62H327.06Q342.45000000000005 -132.62 353.28000000000003 -127.20500000000001Q364.11 -121.79 369.525 -112.575Q374.94 -103.36 374.94 -91.96000000000001Q374.94 -78.85 367.34000000000003 -68.30499999999999Q359.74 -57.76 344.73 -53.77L376.46000000000004 0.0ZM303.88 -71.63H326.11Q336.94 -71.63 342.26 -76.85499999999999Q347.58000000000004 -82.08 347.58000000000004 -91.39Q347.58000000000004 -100.51 342.26 -105.545Q336.94 -110.58 326.11 -110.58H303.88Z M529.35 -66.12Q529.35 -46.17 520.705 -31.255000000000003Q512.0600000000001 -16.34 496.19500000000005 -8.17Q480.33000000000004 0.0 459.43000000000006 0.0H413.07000000000005V-132.62H459.43000000000006Q480.33000000000004 -132.62 496.19500000000005 -124.45Q512.0600000000001 -116.28 520.705 -101.17500000000001Q529.35 -86.07000000000001 529.35 -66.12ZM502.18000000000006 -66.12Q502.18000000000006 -86.83 490.7800000000001 -98.515Q479.38000000000005 -110.2 458.48 -110.2H439.67V-22.61H458.48Q479.38000000000005 -22.61 490.7800000000001 -34.010000000000005Q502.18000000000006 -45.410000000000004 502.18000000000006 -66.12Z M644.6200000000001 -25.27H591.8000000000001L583.0600000000001 0.0H555.1300000000001L602.82 -132.81H633.7900000000001L681.48 0.0H653.36ZM637.4000000000001 -46.55 618.21 -102.03 599.0200000000001 -46.55Z M739.94 -21.09H783.64V0.0H713.34V-132.62H739.94Z M841.1500000000001 -132.62V0.0H814.5500000000001V-132.62Z M877.95 -38.19H906.45Q907.02 -30.02 912.245 -25.27Q917.47 -20.52 926.59 -20.52Q935.9 -20.52 941.22 -24.985Q946.54 -29.45 946.54 -36.67Q946.54 -42.56 942.93 -46.36Q939.3199999999999 -50.160000000000004 933.905 -52.345Q928.49 -54.53 918.99 -57.19Q906.0699999999999 -60.99 897.9949999999999 -64.69500000000001Q889.92 -68.4 884.125 -75.905Q878.33 -83.41 878.33 -95.95Q878.33 -107.73 884.22 -116.47Q890.11 -125.21000000000001 900.75 -129.865Q911.39 -134.52 925.0699999999999 -134.52Q945.59 -134.52 958.415 -124.54500000000002Q971.24 -114.57000000000001 972.5699999999999 -96.71000000000001H943.31Q942.93 -103.55 937.515 -108.015Q932.1 -112.48 923.17 -112.48Q915.38 -112.48 910.7249999999999 -108.49000000000001Q906.0699999999999 -104.5 906.0699999999999 -96.9Q906.0699999999999 -91.58 909.585 -88.065Q913.1 -84.55 918.325 -82.36500000000001Q923.55 -80.18 933.05 -77.33Q945.97 -73.53 954.14 -69.73Q962.31 -65.93 968.2 -58.330000000000005Q974.09 -50.730000000000004 974.09 -38.38Q974.09 -27.740000000000002 968.5799999999999 -18.62Q963.0699999999999 -9.5 952.43 -4.085Q941.79 1.33 927.16 1.33Q913.29 1.33 902.175 -3.42Q891.06 -8.17 884.5999999999999 -17.1Q878.14 -26.03 877.95 -38.19Z"/>
  </g>
  <g id="tagline" fill="#5FC8BF" transform="translate(566 372)">
    <path d="M38.75 0.0H33.108L10.416 -34.41V0.0H4.774V-43.275999999999996H10.416L33.108 -8.928V-43.275999999999996H38.75Z M63.372 -34.534Q67.836 -34.534 71.122 -32.612Q74.408 -30.69 76.02 -27.776V-33.976H81.72399999999999V0.0H76.02V-6.324Q74.346 -3.348 71.029 -1.395Q67.712 0.558 63.31 0.558Q58.784 0.558 55.126 -1.674Q51.467999999999996 -3.906 49.36 -7.936Q47.251999999999995 -11.966 47.251999999999995 -17.112Q47.251999999999995 -22.32 49.36 -26.256999999999998Q51.467999999999996 -30.194 55.157 -32.364Q58.846 -34.534 63.372 -34.534ZM64.488 -29.636Q61.32599999999999 -29.636 58.721999999999994 -28.148Q56.117999999999995 -26.66 54.568 -23.808Q53.018 -20.956 53.018 -17.112Q53.018 -13.206 54.568 -10.323Q56.117999999999995 -7.4399999999999995 58.721999999999994 -5.920999999999999Q61.32599999999999 -4.402 64.488 -4.402Q67.65 -4.402 70.285 -5.920999999999999Q72.92 -7.4399999999999995 74.47 -10.323Q76.02 -13.206 76.02 -17.05Q76.02 -20.894 74.47 -23.746Q72.92 -26.598 70.285 -28.116999999999997Q67.65 -29.636 64.488 -29.636Z M99.154 -29.326V-9.3Q99.154 -6.82 100.208 -5.797000000000001Q101.26199999999999 -4.774 103.86599999999999 -4.774H108.01999999999998V0.0H102.93599999999999Q98.22399999999999 0.0 95.868 -2.17Q93.51199999999999 -4.34 93.51199999999999 -9.3V-29.326H89.10999999999999V-33.976H93.51199999999999V-42.532H99.154V-33.976H108.01999999999998V-29.326Z M145.97199999999998 -33.976V0.0H140.32999999999998V-5.022Q138.718 -2.418 135.83499999999998 -0.9610000000000001Q132.952 0.496 129.48 0.496Q125.51199999999999 0.496 122.35 -1.147Q119.18799999999999 -2.79 117.35899999999998 -6.0760000000000005Q115.52999999999999 -9.362 115.52999999999999 -14.074V-33.976H121.10999999999999V-14.818Q121.10999999999999 -9.796 123.65199999999999 -7.099Q126.19399999999999 -4.402 130.596 -4.402Q135.12199999999999 -4.402 137.726 -7.192Q140.32999999999998 -9.982 140.32999999999998 -15.314V-33.976Z M173.13599999999997 -34.596V-28.768H171.64799999999997Q162.16199999999998 -28.768 162.16199999999998 -18.476V0.0H156.51999999999998V-33.976H162.16199999999998V-28.458Q163.64999999999998 -31.372 166.409 -32.983999999999995Q169.16799999999998 -34.596 173.13599999999997 -34.596Z M194.658 -34.534Q199.12199999999999 -34.534 202.408 -32.612Q205.694 -30.69 207.30599999999998 -27.776V-33.976H213.01V0.0H207.30599999999998V-6.324Q205.63199999999998 -3.348 202.315 -1.395Q198.998 0.558 194.59599999999998 0.558Q190.07 0.558 186.41199999999998 -1.674Q182.754 -3.906 180.646 -7.936Q178.53799999999998 -11.966 178.53799999999998 -17.112Q178.53799999999998 -22.32 180.646 -26.256999999999998Q182.754 -30.194 186.44299999999998 -32.364Q190.13199999999998 -34.534 194.658 -34.534ZM195.774 -29.636Q192.612 -29.636 190.00799999999998 -28.148Q187.404 -26.66 185.85399999999998 -23.808Q184.30399999999997 -20.956 184.30399999999997 -17.112Q184.30399999999997 -13.206 185.85399999999998 -10.323Q187.404 -7.4399999999999995 190.00799999999998 -5.920999999999999Q192.612 -4.402 195.774 -4.402Q198.93599999999998 -4.402 201.57099999999997 -5.920999999999999Q204.206 -7.4399999999999995 205.75599999999997 -10.323Q207.30599999999998 -13.206 207.30599999999998 -17.05Q207.30599999999998 -20.894 205.75599999999997 -23.746Q204.206 -26.598 201.57099999999997 -28.116999999999997Q198.93599999999998 -29.636 195.774 -29.636Z M229.2 -45.88V0.0H223.558V-45.88Z M255.504 -9.982H261.332Q261.58 -7.4399999999999995 263.719 -5.827999999999999Q265.858 -4.216 269.33 -4.216Q272.554 -4.216 274.414 -5.6419999999999995Q276.274 -7.068 276.274 -9.238Q276.274 -11.47 274.28999999999996 -12.555Q272.306 -13.64 268.152 -14.693999999999999Q264.37 -15.686 261.983 -16.709Q259.596 -17.732 257.89099999999996 -19.747Q256.186 -21.762 256.186 -25.048Q256.186 -27.652 257.736 -29.822000000000003Q259.286 -31.992 262.13800000000003 -33.263Q264.99 -34.534 268.648 -34.534Q274.29 -34.534 277.762 -31.682Q281.234 -28.83 281.482 -23.87H275.84000000000003Q275.654 -26.536 273.701 -28.148Q271.748 -29.759999999999998 268.462 -29.759999999999998Q265.424 -29.759999999999998 263.626 -28.458Q261.828 -27.156 261.828 -25.048Q261.828 -23.374 262.913 -22.289Q263.998 -21.204 265.64099999999996 -20.553Q267.284 -19.902 270.198 -19.096Q273.856 -18.104 276.15 -17.143Q278.444 -16.182 280.087 -14.259999999999998Q281.73 -12.338 281.79200000000003 -9.238Q281.79200000000003 -6.448 280.242 -4.216Q278.692 -1.984 275.871 -0.713Q273.05 0.558 269.392 0.558Q265.486 0.558 262.38599999999997 -0.775Q259.286 -2.108 257.488 -4.495Q255.69 -6.882 255.504 -9.982Z M288.62 -17.05Q288.62 -22.258 290.88300000000004 -26.256999999999998Q293.146 -30.256 297.052 -32.394999999999996Q300.958 -34.534 305.794 -34.534Q310.63 -34.534 314.536 -32.394999999999996Q318.442 -30.256 320.70500000000004 -26.288Q322.968 -22.32 322.968 -17.05Q322.968 -11.78 320.64300000000003 -7.781Q318.318 -3.782 314.35 -1.612Q310.382 0.558 305.546 0.558Q300.772 0.558 296.897 -1.612Q293.022 -3.782 290.821 -7.781Q288.62 -11.78 288.62 -17.05ZM317.202 -17.05Q317.202 -21.142 315.59000000000003 -23.994Q313.978 -26.846 311.374 -28.241Q308.77 -29.636 305.732 -29.636Q302.632 -29.636 300.05899999999997 -28.241Q297.486 -26.846 295.93600000000004 -23.994Q294.386 -21.142 294.386 -17.05Q294.386 -12.896 295.90500000000003 -10.044Q297.42400000000004 -7.192 299.966 -5.797000000000001Q302.508 -4.402 305.546 -4.402Q308.584 -4.402 311.25 -5.827999999999999Q313.916 -7.254 315.55899999999997 -10.106Q317.202 -12.958 317.202 -17.05Z M361.54 -33.976V0.0H355.898V-5.022Q354.286 -2.418 351.403 -0.9610000000000001Q348.52000000000004 0.496 345.048 0.496Q341.08000000000004 0.496 337.918 -1.147Q334.75600000000003 -2.79 332.927 -6.0760000000000005Q331.098 -9.362 331.098 -14.074V-33.976H336.678V-14.818Q336.678 -9.796 339.22 -7.099Q341.762 -4.402 346.164 -4.402Q350.69 -4.402 353.294 -7.192Q355.898 -9.982 355.898 -15.314V-33.976Z M402.53000000000003 -20.026V0.0H396.95000000000005V-19.22Q396.95000000000005 -24.304 394.408 -27.000999999999998Q391.86600000000004 -29.698 387.464 -29.698Q383.0 -29.698 380.365 -26.908Q377.73 -24.118 377.73 -18.786V0.0H372.088V-33.976H377.73V-29.14Q379.404 -31.744 382.28700000000003 -33.17Q385.17 -34.596 388.642 -34.596Q394.84200000000004 -34.596 398.68600000000004 -30.845Q402.53000000000003 -27.094 402.53000000000003 -20.026Z M426.84200000000004 -34.534Q430.81 -34.534 434.22 -32.705Q437.63000000000005 -30.876 439.42800000000005 -27.9V-45.88H445.132V0.0H439.42800000000005V-6.386Q437.754 -3.348 434.468 -1.395Q431.182 0.558 426.78000000000003 0.558Q422.254 0.558 418.56500000000005 -1.674Q414.87600000000003 -3.906 412.76800000000003 -7.936Q410.66 -11.966 410.66 -17.112Q410.66 -22.32 412.76800000000003 -26.256999999999998Q414.87600000000003 -30.194 418.56500000000005 -32.364Q422.254 -34.534 426.84200000000004 -34.534ZM427.896 -29.636Q424.73400000000004 -29.636 422.13 -28.148Q419.526 -26.66 417.976 -23.808Q416.42600000000004 -20.956 416.42600000000004 -17.112Q416.42600000000004 -13.206 417.976 -10.323Q419.526 -7.4399999999999995 422.13 -5.920999999999999Q424.73400000000004 -4.402 427.896 -4.402Q431.05800000000005 -4.402 433.69300000000004 -5.920999999999999Q436.32800000000003 -7.4399999999999995 437.87800000000004 -10.323Q439.42800000000005 -13.206 439.42800000000005 -17.05Q439.42800000000005 -20.894 437.87800000000004 -23.746Q436.32800000000003 -26.598 433.69300000000004 -28.116999999999997Q431.05800000000005 -29.636 427.896 -29.636Z M471.37399999999997 -9.982H477.202Q477.45 -7.4399999999999995 479.58899999999994 -5.827999999999999Q481.72799999999995 -4.216 485.2 -4.216Q488.424 -4.216 490.284 -5.6419999999999995Q492.144 -7.068 492.144 -9.238Q492.144 -11.47 490.15999999999997 -12.555Q488.176 -13.64 484.022 -14.693999999999999Q480.23999999999995 -15.686 477.85299999999995 -16.709Q475.466 -17.732 473.76099999999997 -19.747Q472.056 -21.762 472.056 -25.048Q472.056 -27.652 473.606 -29.822000000000003Q475.156 -31.992 478.008 -33.263Q480.85999999999996 -34.534 484.518 -34.534Q490.15999999999997 -34.534 493.63199999999995 -31.682Q497.104 -28.83 497.352 -23.87H491.71Q491.524 -26.536 489.571 -28.148Q487.618 -29.759999999999998 484.332 -29.759999999999998Q481.294 -29.759999999999998 479.496 -28.458Q477.698 -27.156 477.698 -25.048Q477.698 -23.374 478.783 -22.289Q479.868 -21.204 481.51099999999997 -20.553Q483.154 -19.902 486.068 -19.096Q489.726 -18.104 492.02 -17.143Q494.31399999999996 -16.182 495.957 -14.259999999999998Q497.59999999999997 -12.338 497.662 -9.238Q497.662 -6.448 496.11199999999997 -4.216Q494.56199999999995 -1.984 491.741 -0.713Q488.91999999999996 0.558 485.262 0.558Q481.356 0.558 478.256 -0.775Q475.156 -2.108 473.358 -4.495Q471.56 -6.882 471.37399999999997 -9.982Z M535.862 -33.976 515.4019999999999 15.996H509.57399999999996L516.27 -0.372L502.568 -33.976H508.8299999999999L519.4939999999999 -6.448L530.034 -33.976Z M572.9459999999999 -20.026V0.0H567.3659999999999V-19.22Q567.3659999999999 -24.304 564.8239999999998 -27.000999999999998Q562.2819999999999 -29.698 557.8799999999999 -29.698Q553.4159999999999 -29.698 550.781 -26.908Q548.146 -24.118 548.146 -18.786V0.0H542.5039999999999V-33.976H548.146V-29.14Q549.8199999999999 -31.744 552.703 -33.17Q555.5859999999999 -34.596 559.0579999999999 -34.596Q565.2579999999999 -34.596 569.1019999999999 -30.845Q572.9459999999999 -27.094 572.9459999999999 -20.026Z M590.0659999999998 -29.326V-9.3Q590.0659999999998 -6.82 591.1199999999999 -5.797000000000001Q592.1739999999999 -4.774 594.7779999999999 -4.774H598.9319999999999V0.0H593.8479999999998Q589.1359999999999 0.0 586.7799999999999 -2.17Q584.4239999999999 -4.34 584.4239999999999 -9.3V-29.326H580.0219999999998V-33.976H584.4239999999999V-42.532H590.0659999999998V-33.976H598.9319999999999V-29.326Z M637.1939999999998 -20.026V0.0H631.6139999999998V-19.22Q631.6139999999998 -24.304 629.0719999999999 -27.000999999999998Q626.5299999999999 -29.698 622.1279999999998 -29.698Q617.6639999999999 -29.698 615.0289999999999 -26.908Q612.3939999999999 -24.118 612.3939999999999 -18.786V0.0H606.7519999999998V-45.88H612.3939999999999V-29.14Q614.0679999999999 -31.744 617.0129999999999 -33.17Q619.9579999999999 -34.596 623.6159999999999 -34.596Q627.4599999999998 -34.596 630.5599999999998 -32.952999999999996Q633.6599999999999 -31.31 635.4269999999999 -28.024Q637.1939999999998 -24.738 637.1939999999998 -20.026Z M678.2459999999998 -14.879999999999999H651.0899999999998Q651.3999999999997 -9.858 654.5309999999997 -7.037000000000001Q657.6619999999998 -4.216 662.1259999999997 -4.216Q665.7839999999998 -4.216 668.2329999999997 -5.921Q670.6819999999998 -7.626 671.6739999999998 -10.478H677.7499999999998Q676.3859999999997 -5.58 672.2939999999998 -2.511Q668.2019999999998 0.558 662.1259999999997 0.558Q657.2899999999997 0.558 653.4769999999997 -1.612Q649.6639999999998 -3.782 647.4939999999998 -7.781Q645.3239999999998 -11.78 645.3239999999998 -17.05Q645.3239999999998 -22.32 647.4319999999998 -26.288Q649.5399999999997 -30.256 653.3529999999998 -32.394999999999996Q657.1659999999998 -34.534 662.1259999999997 -34.534Q666.9619999999998 -34.534 670.6819999999998 -32.426Q674.4019999999998 -30.318 676.4169999999998 -26.629Q678.4319999999998 -22.94 678.4319999999998 -18.29Q678.4319999999998 -16.678 678.2459999999998 -14.879999999999999ZM661.8779999999998 -29.759999999999998Q657.5999999999998 -29.759999999999998 654.5929999999998 -27.031999999999996Q651.5859999999998 -24.304 651.1519999999998 -19.468H672.6039999999998Q672.6039999999998 -22.692 671.1779999999999 -25.017Q669.7519999999998 -27.342 667.3029999999999 -28.551Q664.8539999999998 -29.759999999999998 661.8779999999998 -29.759999999999998Z M685.0119999999997 -9.982H690.8399999999997Q691.0879999999997 -7.4399999999999995 693.2269999999997 -5.827999999999999Q695.3659999999998 -4.216 698.8379999999997 -4.216Q702.0619999999997 -4.216 703.9219999999997 -5.6419999999999995Q705.7819999999997 -7.068 705.7819999999997 -9.238Q705.7819999999997 -11.47 703.7979999999998 -12.555Q701.8139999999997 -13.64 697.6599999999997 -14.693999999999999Q693.8779999999997 -15.686 691.4909999999998 -16.709Q689.1039999999997 -17.732 687.3989999999997 -19.747Q685.6939999999997 -21.762 685.6939999999997 -25.048Q685.6939999999997 -27.652 687.2439999999997 -29.822000000000003Q688.7939999999998 -31.992 691.6459999999997 -33.263Q694.4979999999997 -34.534 698.1559999999997 -34.534Q703.7979999999998 -34.534 707.2699999999998 -31.682Q710.7419999999997 -28.83 710.9899999999998 -23.87H705.3479999999997Q705.1619999999997 -26.536 703.2089999999997 -28.148Q701.2559999999997 -29.759999999999998 697.9699999999997 -29.759999999999998Q694.9319999999997 -29.759999999999998 693.1339999999998 -28.458Q691.3359999999998 -27.156 691.3359999999998 -25.048Q691.3359999999998 -23.374 692.4209999999998 -22.289Q693.5059999999997 -21.204 695.1489999999997 -20.553Q696.7919999999997 -19.902 699.7059999999997 -19.096Q703.3639999999997 -18.104 705.6579999999997 -17.143Q707.9519999999998 -16.182 709.5949999999998 -14.259999999999998Q711.2379999999997 -12.338 711.2999999999997 -9.238Q711.2999999999997 -6.448 709.7499999999998 -4.216Q708.1999999999997 -1.984 705.3789999999997 -0.713Q702.5579999999998 0.558 698.8999999999997 0.558Q694.9939999999997 0.558 691.8939999999998 -0.775Q688.7939999999998 -2.108 686.9959999999998 -4.495Q685.1979999999998 -6.882 685.0119999999997 -9.982Z M719.3059999999998 -43.338Q719.3059999999998 -44.95 720.4219999999998 -46.066Q721.5379999999998 -47.182 723.1499999999997 -47.182Q724.6999999999998 -47.182 725.7849999999999 -46.066Q726.8699999999998 -44.95 726.8699999999998 -43.338Q726.8699999999998 -41.726 725.7849999999999 -40.61Q724.6999999999998 -39.494 723.1499999999997 -39.494Q721.5379999999998 -39.494 720.4219999999998 -40.61Q719.3059999999998 -41.726 719.3059999999998 -43.338ZM725.8779999999998 -33.976V0.0H720.2359999999998V-33.976Z M734.6279999999997 -9.982H740.4559999999997Q740.7039999999997 -7.4399999999999995 742.8429999999997 -5.827999999999999Q744.9819999999997 -4.216 748.4539999999997 -4.216Q751.6779999999997 -4.216 753.5379999999997 -5.6419999999999995Q755.3979999999997 -7.068 755.3979999999997 -9.238Q755.3979999999997 -11.47 753.4139999999998 -12.555Q751.4299999999997 -13.64 747.2759999999997 -14.693999999999999Q743.4939999999997 -15.686 741.1069999999997 -16.709Q738.7199999999997 -17.732 737.0149999999996 -19.747Q735.3099999999997 -21.762 735.3099999999997 -25.048Q735.3099999999997 -27.652 736.8599999999997 -29.822000000000003Q738.4099999999997 -31.992 741.2619999999997 -33.263Q744.1139999999997 -34.534 747.7719999999997 -34.534Q753.4139999999998 -34.534 756.8859999999997 -31.682Q760.3579999999997 -28.83 760.6059999999998 -23.87H754.9639999999997Q754.7779999999997 -26.536 752.8249999999997 -28.148Q750.8719999999997 -29.759999999999998 747.5859999999997 -29.759999999999998Q744.5479999999997 -29.759999999999998 742.7499999999998 -28.458Q740.9519999999998 -27.156 740.9519999999998 -25.048Q740.9519999999998 -23.374 742.0369999999998 -22.289Q743.1219999999997 -21.204 744.7649999999996 -20.553Q746.4079999999997 -19.902 749.3219999999997 -19.096Q752.9799999999997 -18.104 755.2739999999997 -17.143Q757.5679999999998 -16.182 759.2109999999998 -14.259999999999998Q760.8539999999997 -12.338 760.9159999999997 -9.238Q760.9159999999997 -6.448 759.3659999999998 -4.216Q757.8159999999997 -1.984 754.9949999999997 -0.713Q752.1739999999998 0.558 748.5159999999997 0.558Q744.6099999999997 0.558 741.5099999999998 -0.775Q738.4099999999997 -2.108 736.6119999999997 -4.495Q734.8139999999997 -6.882 734.6279999999997 -9.982Z"/>
  </g>
</svg>